<?xml version="1.0" encoding="iso-8859-1"?>
<!-- Generator: Adobe Illustrator 18.0.0, SVG Export Plug-In . SVG Version: 6.00 Build 0)  -->
<!DOCTYPE svg PUBLIC "-//W3C//DTD SVG 1.1//EN" "http://www.w3.org/Graphics/SVG/1.1/DTD/svg11.dtd">
<svg version="1.1" id="Capa_1" xmlns="http://www.w3.org/2000/svg" xmlns:xlink="http://www.w3.org/1999/xlink" x="0px" y="0px"
	 viewBox="0 0 490 490" style="enable-background:new 0 0 490 490;" xml:space="preserve">
<g>
	<g>
		<path d="M20.655,423.424c13.025,0,18.964,3.588,26.483,8.133c8.715,5.266,18.591,11.234,37.614,11.234
			c19.022,0,28.9-5.969,37.614-11.234c7.518-4.545,13.457-8.133,26.482-8.133c13.025,0,18.964,3.588,26.482,8.133
			c8.713,5.266,18.59,11.234,37.612,11.234s28.899-5.969,37.613-11.234c7.52-4.545,13.458-8.133,26.483-8.133
			c13.027,0,18.966,3.588,26.484,8.133c8.715,5.266,18.592,11.234,37.615,11.234c19.024,0,28.901-5.969,37.616-11.234
			c7.519-4.545,13.459-8.133,26.485-8.133c13.026,0,18.967,3.588,26.486,8.133c8.715,5.266,18.592,11.234,37.616,11.234
			c5.942,0,10.76-4.817,10.76-10.76c0-5.943-4.817-10.76-10.76-10.76c-13.027,0-18.968-3.589-26.487-8.134
			c-8.714-5.266-18.591-11.234-37.615-11.234c-19.025,0-28.902,5.969-37.616,11.234c-7.518,4.545-13.459,8.134-26.485,8.134
			c-13.026,0-18.966-3.589-26.485-8.134c-8.714-5.266-18.591-11.234-37.614-11.234c-19.023,0-28.899,5.969-37.613,11.234
			c-7.52,4.545-13.458,8.134-26.483,8.134c-13.024,0-18.964-3.589-26.481-8.134c-8.713-5.266-18.591-11.234-37.613-11.234
			c-19.024,0-28.899,5.969-37.613,11.234c-7.52,4.545-13.458,8.134-26.483,8.134c-13.025,0-18.965-3.589-26.483-8.134
			c-8.714-5.266-18.591-11.234-37.614-11.234c-5.942,0-10.76,4.817-10.76,10.76C9.895,418.605,14.713,423.424,20.655,423.424z"/>
		<path d="M469.345,468.479c-13.027,0-18.968-3.588-26.487-8.134c-8.714-5.266-18.591-11.234-37.615-11.234
			c-19.025,0-28.902,5.97-37.616,11.235c-7.518,4.545-13.459,8.133-26.485,8.133c-13.026,0-18.966-3.588-26.485-8.133
			c-8.714-5.266-18.591-11.235-37.614-11.235c-19.023,0-28.899,5.97-37.613,11.235c-7.52,4.545-13.458,8.133-26.483,8.133
			c-13.024,0-18.964-3.588-26.481-8.133c-8.713-5.266-18.591-11.235-37.613-11.235c-19.024,0-28.899,5.97-37.613,11.235
			c-7.52,4.545-13.458,8.133-26.483,8.133c-13.025,0-18.965-3.588-26.483-8.133c-8.714-5.266-18.591-11.235-37.614-11.235
			c-5.942,0-10.76,4.818-10.76,10.761c0,5.942,4.817,10.76,10.76,10.76c13.025,0,18.964,3.589,26.483,8.133
			C55.853,484.03,65.729,490,84.753,490c19.022,0,28.9-5.97,37.614-11.235c7.518-4.544,13.457-8.133,26.482-8.133
			c13.025,0,18.964,3.589,26.482,8.133c8.713,5.266,18.59,11.235,37.612,11.235s28.899-5.97,37.613-11.235
			c7.52-4.544,13.458-8.133,26.483-8.133c13.027,0,18.966,3.589,26.484,8.133C312.24,484.03,322.117,490,341.141,490
			c19.024,0,28.901-5.97,37.616-11.235c7.519-4.544,13.459-8.133,26.485-8.133c13.026,0,18.967,3.589,26.486,8.133
			C440.443,484.03,450.32,490,469.345,490c5.942,0,10.76-4.818,10.76-10.76C480.105,473.298,475.287,468.479,469.345,468.479z"/>
		<path d="M252.026,384.895c0.729,0.502,1.658,0.613,2.483,0.301c6.696-2.545,14.066-3.781,22.531-3.781
			c18.274,0,27.811,5.763,36.224,10.847c2.138,1.293,4.326,2.675,6.659,3.807c1.766,0.856,3.217,0.06,3.768-1.524
			c13.454-38.684,53.088-154.984,53.088-154.984c0.695-2.03,0.512-4.279-0.503-6.17c-1.015-1.891-2.788-3.287-4.866-3.83
			l-110.84-28.957c-2.286-0.601-4.822-0.086-6.695,1.362c-1.886,1.456-3.011,3.747-3.011,6.128v174.589
			C250.864,383.564,251.3,384.393,252.026,384.895z"/>
		<path d="M157.078,380.327c0.328,0.958,1.166,1.65,2.168,1.792c11.81,1.672,19.256,6.172,25.825,10.142
			c7.564,4.572,14.097,8.52,27.873,8.52c8.127,0,14.239-1.293,20.438-4.325c0.923-0.452,1.508-1.39,1.508-2.417v-185.61
			c0-2.382-1.126-4.673-3.011-6.128c-1.871-1.447-4.409-1.963-6.691-1.364l-110.844,28.958c-2.078,0.543-3.851,1.939-4.865,3.83
			c-1.016,1.891-1.198,4.14-0.503,6.172L157.078,380.327z"/>
	</g>
	<g>
		<path d="M316.678,115.096h-7.439V80.371c0-6.311-5.135-11.444-11.445-11.444h-38.581V34.636c0-1.486-1.204-2.69-2.69-2.69h-27.29
			c-1.485,0-2.689,1.204-2.689,2.69v34.291H187.96c-6.31,0-11.444,5.134-11.444,11.444v34.725h-7.439
			c-20.243,0-36.712,16.47-36.712,36.713v46.377c0,1.688,0.792,3.277,2.14,4.294c0.943,0.713,2.084,1.086,3.24,1.086
			c0.494,0,0.99-0.067,1.476-0.206c5.079-1.447,10.594-3.08,16.432-4.81c28.79-8.523,64.617-19.132,87.216-19.132l0.011,0.001
			l0.011-0.001c22.598,0,58.425,10.608,87.214,19.132c5.838,1.729,11.353,3.362,16.432,4.81c0.485,0.139,0.981,0.206,1.475,0.206
			c1.156,0,2.297-0.373,3.24-1.086c1.348-1.017,2.14-2.607,2.14-4.294v-46.377C353.39,131.565,336.922,115.096,316.678,115.096z
			 M215.414,100.506c0,1.958-1.593,3.55-3.55,3.55h-15.465c-1.958,0-3.55-1.592-3.55-3.55V85.04c0-1.956,1.592-3.548,3.55-3.548
			h15.465c1.957,0,3.55,1.592,3.55,3.548V100.506z M254.16,100.506c0,1.958-1.593,3.55-3.551,3.55h-15.465
			c-1.957,0-3.551-1.592-3.551-3.55V85.04c0-1.956,1.594-3.548,3.551-3.548h15.465c1.958,0,3.551,1.592,3.551,3.548V100.506z
			 M292.905,100.506c0,1.958-1.593,3.55-3.55,3.55h-15.465c-1.958,0-3.55-1.592-3.55-3.55V85.04c0-1.956,1.592-3.548,3.55-3.548
			h15.465c1.957,0,3.55,1.592,3.55,3.548V100.506z"/>
		<path d="M229.231,20.279h27.29c1.486,0,2.69-1.204,2.69-2.69v-14.9c0-1.485-1.204-2.689-2.69-2.689h-27.29
			c-1.485,0-2.689,1.204-2.689,2.689v14.9C226.542,19.075,227.746,20.279,229.231,20.279z"/>
	</g>
</g>
<g>
</g>
<g>
</g>
<g>
</g>
<g>
</g>
<g>
</g>
<g>
</g>
<g>
</g>
<g>
</g>
<g>
</g>
<g>
</g>
<g>
</g>
<g>
</g>
<g>
</g>
<g>
</g>
<g>
</g>
</svg>
