<?xml version="1.0" encoding="iso-8859-1"?>
<!-- Generator: Adobe Illustrator 18.0.0, SVG Export Plug-In . SVG Version: 6.00 Build 0)  -->
<!DOCTYPE svg PUBLIC "-//W3C//DTD SVG 1.1//EN" "http://www.w3.org/Graphics/SVG/1.1/DTD/svg11.dtd">
<svg version="1.1" id="Capa_1" xmlns="http://www.w3.org/2000/svg" xmlns:xlink="http://www.w3.org/1999/xlink" x="0px" y="0px"
	 viewBox="0 0 385.309 385.309" style="enable-background:new 0 0 385.309 385.309;" xml:space="preserve">
<path d="M315.17,0H70.14C60.081,0,51.916,8.154,51.916,18.219V367.09c0,10.064,8.165,18.219,18.224,18.219h245.03
	c10.066,0,18.223-8.154,18.223-18.219V18.219C333.393,8.154,325.235,0,315.17,0z M142.941,338.405H93.14v-49.79h49.801V338.405z
	 M142.941,265.537H93.14v-49.809h49.801V265.537z M142.941,192.654H93.14v-49.793h49.801V192.654z M217.55,338.405h-49.793v-49.79
	h49.793V338.405z M217.55,265.537h-49.793v-49.809h49.793V265.537z M217.55,192.654h-49.793v-49.793h49.793V192.654z
	 M292.169,338.405h-49.792v-49.79h49.792V338.405z M292.169,265.537h-49.792v-49.809h49.792V265.537z M292.169,192.654h-49.792
	v-49.793h49.792V192.654z M292.169,103.955H93.14V42.467h199.029V103.955z"/>
<g>
</g>
<g>
</g>
<g>
</g>
<g>
</g>
<g>
</g>
<g>
</g>
<g>
</g>
<g>
</g>
<g>
</g>
<g>
</g>
<g>
</g>
<g>
</g>
<g>
</g>
<g>
</g>
<g>
</g>
</svg>
