<?xml version="1.0" encoding="iso-8859-1"?>
<!-- Generator: Adobe Illustrator 17.1.0, SVG Export Plug-In . SVG Version: 6.00 Build 0)  -->
<!DOCTYPE svg PUBLIC "-//W3C//DTD SVG 1.1//EN" "http://www.w3.org/Graphics/SVG/1.1/DTD/svg11.dtd">
<svg version="1.1" id="Capa_1" xmlns="http://www.w3.org/2000/svg" xmlns:xlink="http://www.w3.org/1999/xlink" x="0px" y="0px"
	 viewBox="0 0 185.122 185.122" style="enable-background:new 0 0 185.122 185.122;" xml:space="preserve">
<path d="M160.701,0H24.42C14.736,0,6.858,7.878,6.858,17.562V167.56c0,9.684,7.878,17.562,17.562,17.562h136.281
	c9.684,0,17.563-7.878,17.563-17.562V17.562C178.264,7.878,170.385,0,160.701,0z M51.333,153.228v11H31.061v-11H51.333z
	 M31.061,45.228V22.895h123v22.333H31.061z M119.999,153.228v11H99.728v-11H119.999z M99.728,135.228v-11h20.271v11H99.728z
	 M31.061,106.228v-11h20.272v11H31.061z M31.061,77.228v-11h20.272v11H31.061z M99.728,77.228v-11h20.271v11H99.728z M85.666,95.228
	v11H65.394v-11H85.666z M65.394,77.228v-11h20.272v11H65.394z M65.394,135.228v-11h20.272v11H65.394z M99.728,106.228v-11h20.271v11
	H99.728z M134.061,77.228v-11h20.272v11H134.061z M31.061,135.228v-11h20.272v11H31.061z M154.333,95.228v11h-20.272v-11H154.333z
	 M85.666,153.228v11H65.394v-11H85.666z M134.061,164.228v-40h20.272v40H134.061z"/>
<g>
</g>
<g>
</g>
<g>
</g>
<g>
</g>
<g>
</g>
<g>
</g>
<g>
</g>
<g>
</g>
<g>
</g>
<g>
</g>
<g>
</g>
<g>
</g>
<g>
</g>
<g>
</g>
<g>
</g>
</svg>
