<?xml version="1.0" encoding="iso-8859-1"?>
<!-- Generator: Adobe Illustrator 18.1.1, SVG Export Plug-In . SVG Version: 6.00 Build 0)  -->
<svg version="1.1" id="Capa_1" xmlns="http://www.w3.org/2000/svg" xmlns:xlink="http://www.w3.org/1999/xlink" x="0px" y="0px"
	 viewBox="0 0 7.243 7.243" style="enable-background:new 0 0 7.243 7.243;" xml:space="preserve">
<g>
	<g>
		<path style="fill:#010002;" d="M4.328,3.621l2.769-2.768c0.194-0.195,0.194-0.512,0-0.707c-0.195-0.195-0.513-0.195-0.707,0
			L3.621,2.914L0.853,0.146c-0.195-0.195-0.512-0.195-0.707,0s-0.195,0.512,0,0.707l2.768,2.768L0.146,6.39
			c-0.195,0.194-0.195,0.512,0,0.707c0.195,0.194,0.512,0.194,0.707,0l2.768-2.769L6.39,7.097c0.194,0.194,0.512,0.194,0.707,0
			c0.194-0.195,0.194-0.513,0-0.707L4.328,3.621z"/>
	</g>
</g>
<g>
</g>
<g>
</g>
<g>
</g>
<g>
</g>
<g>
</g>
<g>
</g>
<g>
</g>
<g>
</g>
<g>
</g>
<g>
</g>
<g>
</g>
<g>
</g>
<g>
</g>
<g>
</g>
<g>
</g>
</svg>
