<?xml version="1.0" encoding="iso-8859-1"?>
<!-- Generator: Adobe Illustrator 18.1.1, SVG Export Plug-In . SVG Version: 6.00 Build 0)  -->
<svg version="1.1" id="Capa_1" xmlns="http://www.w3.org/2000/svg" xmlns:xlink="http://www.w3.org/1999/xlink" x="0px" y="0px"
	 viewBox="0 0 51.203 51.203" style="enable-background:new 0 0 51.203 51.203;" xml:space="preserve">
<g>
	<path style="fill:#030104;" d="M48.977,36.896c-0.47-2.106-1.662-3.44-2.714-4.615c-1.503-1.68-2.922-3.267-2.922-7.514v-13.16
		l-0.004-0.121c-0.028-0.372,0.118-2.696-5.871-6.304c-1.604-0.967-2.898-1.411-3.752-1.854C33.714,1.49,32.224,0,30.386,0H8.688
		C6.85,0,5.36,1.49,5.36,3.328v42.379H5.24c-1.838,0-3.328,1.49-3.328,3.328v2.168h35.25v-2.168c0-1.838-1.49-3.328-3.327-3.328
		h-0.121V24.102c0.354,0.019,0.674,0.066,0.857,0.137V37.8c-0.057,0.617-0.154,3.01,1.499,4.89c1.229,1.396,3.049,2.104,5.408,2.104
		c3.414,0,5.569-0.704,6.781-2.217C49.636,40.86,49.367,38.639,48.977,36.896z M10.659,9.713c0-1.394,1.129-2.523,2.523-2.523
		h12.712c1.393,0,2.522,1.129,2.522,2.523v3.785c0,1.394-1.13,2.523-2.522,2.523H13.182c-1.394,0-2.523-1.129-2.523-2.523V9.713z
		 M45.681,40.511c-0.292,0.365-1.228,0.979-4.202,0.979c-1.358,0-2.339-0.325-2.914-0.968c-0.853-0.951-0.702-2.426-0.702-2.426
		l0.013-14.005c0-0.9-0.363-1.712-1.024-2.288c-0.885-0.771-2.147-0.978-3.136-1.009V7.031c0.661,0.329,1.431,0.704,2.33,1.132
		c3.416,1.627,3.942,3.372,3.992,3.55v13.053c0,5.507,2.087,7.84,3.763,9.716c0.934,1.043,1.671,1.866,1.953,3.134
		C46.082,39.094,46.06,40.04,45.681,40.511z"/>
</g>
<g>
</g>
<g>
</g>
<g>
</g>
<g>
</g>
<g>
</g>
<g>
</g>
<g>
</g>
<g>
</g>
<g>
</g>
<g>
</g>
<g>
</g>
<g>
</g>
<g>
</g>
<g>
</g>
<g>
</g>
</svg>
