<?xml version="1.0" encoding="iso-8859-1"?>
<!-- Generator: Adobe Illustrator 18.1.1, SVG Export Plug-In . SVG Version: 6.00 Build 0)  -->
<svg version="1.1" id="Capa_1" xmlns="http://www.w3.org/2000/svg" xmlns:xlink="http://www.w3.org/1999/xlink" x="0px" y="0px"
	 viewBox="0 0 219.032 219.032" style="enable-background:new 0 0 219.032 219.032;" xml:space="preserve">
<g>
	<path style="fill:#010002;" d="M210.237,12.79c-12.775,6.88-29.614,4.201-39.763-6.289l-4.296-4.439l-4.29,4.439
		c-6.295,6.522-15.054,10.263-24.035,10.263c-8.974,0-17.74-3.741-24.046-10.263l-4.29-4.439l-4.29,4.439
		c-6.301,6.522-15.06,10.263-24.041,10.263c-8.968,0-17.728-3.741-24.035-10.263l-4.29-4.439l-4.29,4.439
		C38.439,16.979,21.576,19.67,8.795,12.784L0,8.046V216.97h219.032V8.052L210.237,12.79z M187.24,165.924H33.092V153.99h154.142
		v11.934H187.24z M187.24,142.056H33.092v-11.934h154.142v11.934H187.24z M187.24,118.189H33.092v-11.934h154.142v11.934H187.24z
		 M187.24,94.321H33.092V82.388h154.142v11.934H187.24z M187.24,70.454H33.092V58.52h154.142v11.934H187.24z"/>
</g>
<g>
</g>
<g>
</g>
<g>
</g>
<g>
</g>
<g>
</g>
<g>
</g>
<g>
</g>
<g>
</g>
<g>
</g>
<g>
</g>
<g>
</g>
<g>
</g>
<g>
</g>
<g>
</g>
<g>
</g>
</svg>
