<?xml version="1.0" encoding="iso-8859-1"?>
<!-- Generator: Adobe Illustrator 16.0.0, SVG Export Plug-In . SVG Version: 6.00 Build 0)  -->
<!DOCTYPE svg PUBLIC "-//W3C//DTD SVG 1.1//EN" "http://www.w3.org/Graphics/SVG/1.1/DTD/svg11.dtd">
<svg version="1.1" id="Capa_1" xmlns="http://www.w3.org/2000/svg" xmlns:xlink="http://www.w3.org/1999/xlink" x="0px" y="0px"
	 width="76.557px" height="76.558px" viewBox="0 0 76.557 76.558" style="enable-background:new 0 0 76.557 76.558;"
	 xml:space="preserve">
<g>
	<path d="M68.862,70.07V5.527c0-2.516-2.041-4.558-4.558-4.558H35.747c-2.517,0-4.557,2.042-4.557,4.558v22.641
		c-3.751,0.386-6.62,1.636-8.516,3.762c-2.632,2.952-2.332,6.352-2.302,6.524c0.002,0.16,0.41,15.908,0.41,18.404
		c0,0.296,0.014,0.661,0.033,1.081c0.217,5.014-0.479,7.956-4.686,8.171c-1.224,0.048-2.123-0.246-2.878-0.972
		c-1.908-1.82-2.32-5.771-2.314-7.153V31.103c1.527-0.857,2.508-2.537,2.363-4.399c-0.208-2.663,0.035-11.165,3.73-15.157
		c1.425-1.54,3.226-2.259,5.664-2.259c2.565,0,4.644-2.078,4.644-4.643S25.259,0,22.694,0c-4.997,0-9.312,1.812-12.482,5.237
		c-7.081,7.647-6.287,20.722-6.174,22.186c0.121,1.56,1.003,2.873,2.251,3.618v26.935c-0.005,0.705,0.056,6.987,3.74,10.516
		c1.558,1.497,3.564,2.276,5.831,2.276c0.165,0,0.334-0.004,0.501-0.014c9.638-0.483,9.227-9.908,9.094-13.006
		c-0.014-0.343-0.029-0.639-0.029-0.881c0-2.56-0.395-17.874-0.419-18.695c-0.005-0.071-0.133-1.771,1.182-3.199
		c1.025-1.114,2.735-1.835,5.006-2.135v37.235h-0.972c-1.951,0-3.535,1.581-3.535,3.533v2.952h45.913v-2.756
		C72.598,71.744,70.924,70.07,68.862,70.07z M42.757,47.69c0,1.446-1.175,2.621-2.621,2.621h-0.341
		c-1.448,0-2.621-1.175-2.621-2.621v-5.967c0-1.636,1.327-2.964,2.965-2.964c1.445,0,2.62,1.178,2.62,2.624v6.307H42.757z
		 M62.883,19.948c0,1.635-1.328,2.962-2.966,2.962H40.136c-1.638,0-2.964-1.327-2.964-2.962V9.597c0-1.636,1.326-2.962,2.964-2.962
		h19.781c1.636,0,2.966,1.326,2.966,2.962V19.948z"/>
</g>
<g>
</g>
<g>
</g>
<g>
</g>
<g>
</g>
<g>
</g>
<g>
</g>
<g>
</g>
<g>
</g>
<g>
</g>
<g>
</g>
<g>
</g>
<g>
</g>
<g>
</g>
<g>
</g>
<g>
</g>
</svg>
